<?xml version="1.0" encoding="UTF-8" standalone="no"?>
<!DOCTYPE svg PUBLIC "-//W3C//DTD SVG 1.1//EN" "http://www.w3.org/Graphics/SVG/1.1/DTD/svg11.dtd">
<svg width="100%" height="100%" viewBox="0 0 276 193" version="1.1" xmlns="http://www.w3.org/2000/svg" xmlns:xlink="http://www.w3.org/1999/xlink" xml:space="preserve" xmlns:serif="http://www.serif.com/" style="fill-rule:evenodd;clip-rule:evenodd;">
    <g transform="matrix(1,0,0,1,0,0.00021938)">
        <g transform="matrix(80,0,0,80,-4.16,191.142)">
            <g>
                <path d="M0.285,-0.501C0.312,-0.501 0.339,-0.497 0.366,-0.49C0.392,-0.482 0.415,-0.47 0.434,-0.455C0.454,-0.468 0.476,-0.479 0.502,-0.488C0.527,-0.497 0.557,-0.501 0.592,-0.501C0.617,-0.501 0.642,-0.498 0.667,-0.491C0.691,-0.484 0.713,-0.474 0.732,-0.46C0.751,-0.445 0.766,-0.426 0.777,-0.403C0.788,-0.379 0.794,-0.35 0.794,-0.316L0.794,-0.001C0.787,0.001 0.777,0.003 0.763,0.005C0.748,0.007 0.733,0.008 0.718,0.008C0.703,0.008 0.69,0.007 0.679,0.005C0.667,0.003 0.657,-0.001 0.649,-0.007C0.641,-0.013 0.635,-0.021 0.631,-0.032C0.626,-0.042 0.624,-0.055 0.624,-0.072L0.624,-0.311C0.624,-0.331 0.618,-0.345 0.607,-0.355C0.596,-0.364 0.58,-0.368 0.561,-0.368C0.552,-0.368 0.542,-0.366 0.531,-0.362C0.52,-0.357 0.512,-0.353 0.507,-0.348C0.508,-0.345 0.508,-0.343 0.508,-0.341L0.508,-0.001C0.501,0.001 0.49,0.003 0.476,0.005C0.461,0.007 0.447,0.008 0.432,0.008C0.417,0.008 0.404,0.007 0.393,0.005C0.381,0.003 0.371,-0.001 0.363,-0.007C0.355,-0.013 0.349,-0.021 0.345,-0.032C0.34,-0.042 0.338,-0.055 0.338,-0.072L0.338,-0.311C0.338,-0.331 0.332,-0.345 0.32,-0.355C0.307,-0.364 0.292,-0.368 0.275,-0.368C0.263,-0.368 0.253,-0.366 0.244,-0.363C0.235,-0.359 0.228,-0.355 0.222,-0.352L0.222,-0.001C0.215,0.001 0.205,0.003 0.191,0.005C0.176,0.007 0.161,0.008 0.146,0.008C0.131,0.008 0.118,0.007 0.107,0.005C0.095,0.003 0.085,-0.001 0.077,-0.007C0.069,-0.013 0.063,-0.021 0.059,-0.032C0.054,-0.042 0.052,-0.055 0.052,-0.072L0.052,-0.374C0.052,-0.392 0.056,-0.406 0.064,-0.417C0.071,-0.428 0.082,-0.438 0.095,-0.447C0.118,-0.463 0.146,-0.476 0.18,-0.486C0.213,-0.496 0.248,-0.501 0.285,-0.501Z" style="fill:rgb(146,145,146);fill-rule:nonzero;"/>
            </g>
        </g>
        <g transform="matrix(80,0,0,80,85.92,191.142)">
            <g>
                <path d="M0.309,0.016C0.27,0.016 0.233,0.011 0.2,-0.001C0.166,-0.012 0.136,-0.028 0.112,-0.05C0.087,-0.072 0.067,-0.1 0.053,-0.133C0.038,-0.166 0.031,-0.205 0.031,-0.25C0.031,-0.294 0.038,-0.332 0.053,-0.364C0.067,-0.395 0.086,-0.421 0.109,-0.442C0.132,-0.462 0.159,-0.477 0.189,-0.487C0.219,-0.496 0.25,-0.501 0.281,-0.501C0.316,-0.501 0.349,-0.496 0.378,-0.485C0.407,-0.474 0.432,-0.46 0.453,-0.441C0.474,-0.422 0.49,-0.4 0.502,-0.374C0.513,-0.348 0.519,-0.32 0.519,-0.289C0.519,-0.266 0.513,-0.249 0.5,-0.237C0.487,-0.225 0.47,-0.217 0.447,-0.214L0.2,-0.177C0.207,-0.155 0.222,-0.139 0.245,-0.128C0.268,-0.117 0.294,-0.111 0.323,-0.111C0.35,-0.111 0.376,-0.115 0.401,-0.122C0.425,-0.129 0.445,-0.137 0.46,-0.146C0.471,-0.139 0.48,-0.13 0.487,-0.118C0.494,-0.106 0.498,-0.093 0.498,-0.08C0.498,-0.05 0.484,-0.028 0.456,-0.013C0.435,-0.002 0.411,0.006 0.384,0.01C0.357,0.014 0.332,0.016 0.309,0.016ZM0.281,-0.377C0.265,-0.377 0.251,-0.374 0.24,-0.369C0.228,-0.364 0.218,-0.357 0.211,-0.349C0.204,-0.34 0.198,-0.331 0.195,-0.321C0.191,-0.31 0.189,-0.3 0.188,-0.289L0.359,-0.317C0.357,-0.33 0.35,-0.344 0.337,-0.357C0.324,-0.37 0.306,-0.377 0.281,-0.377Z" style="fill:rgb(146,145,146);fill-rule:nonzero;"/>
            </g>
        </g>
        <g transform="matrix(80,0,0,80,129.84,191.142)">
            <g>
                <path d="M0.285,-0.501C0.312,-0.501 0.339,-0.497 0.366,-0.49C0.392,-0.482 0.415,-0.47 0.434,-0.455C0.454,-0.468 0.476,-0.479 0.502,-0.488C0.527,-0.497 0.557,-0.501 0.592,-0.501C0.617,-0.501 0.642,-0.498 0.667,-0.491C0.691,-0.484 0.713,-0.474 0.732,-0.46C0.751,-0.445 0.766,-0.426 0.777,-0.403C0.788,-0.379 0.794,-0.35 0.794,-0.316L0.794,-0.001C0.787,0.001 0.777,0.003 0.763,0.005C0.748,0.007 0.733,0.008 0.718,0.008C0.703,0.008 0.69,0.007 0.679,0.005C0.667,0.003 0.657,-0.001 0.649,-0.007C0.641,-0.013 0.635,-0.021 0.631,-0.032C0.626,-0.042 0.624,-0.055 0.624,-0.072L0.624,-0.311C0.624,-0.331 0.618,-0.345 0.607,-0.355C0.596,-0.364 0.58,-0.368 0.561,-0.368C0.552,-0.368 0.542,-0.366 0.531,-0.362C0.52,-0.357 0.512,-0.353 0.507,-0.348C0.508,-0.345 0.508,-0.343 0.508,-0.341L0.508,-0.001C0.501,0.001 0.49,0.003 0.476,0.005C0.461,0.007 0.447,0.008 0.432,0.008C0.417,0.008 0.404,0.007 0.393,0.005C0.381,0.003 0.371,-0.001 0.363,-0.007C0.355,-0.013 0.349,-0.021 0.345,-0.032C0.34,-0.042 0.338,-0.055 0.338,-0.072L0.338,-0.311C0.338,-0.331 0.332,-0.345 0.32,-0.355C0.307,-0.364 0.292,-0.368 0.275,-0.368C0.263,-0.368 0.253,-0.366 0.244,-0.363C0.235,-0.359 0.228,-0.355 0.222,-0.352L0.222,-0.001C0.215,0.001 0.205,0.003 0.191,0.005C0.176,0.007 0.161,0.008 0.146,0.008C0.131,0.008 0.118,0.007 0.107,0.005C0.095,0.003 0.085,-0.001 0.077,-0.007C0.069,-0.013 0.063,-0.021 0.059,-0.032C0.054,-0.042 0.052,-0.055 0.052,-0.072L0.052,-0.374C0.052,-0.392 0.056,-0.406 0.064,-0.417C0.071,-0.428 0.082,-0.438 0.095,-0.447C0.118,-0.463 0.146,-0.476 0.18,-0.486C0.213,-0.496 0.248,-0.501 0.285,-0.501Z" style="fill:rgb(146,145,146);fill-rule:nonzero;"/>
            </g>
        </g>
        <g transform="matrix(80,0,0,80,197.52,191.142)">
            <g>
                <path d="M0.037,-0.48C0.044,-0.482 0.069,-0.483 0.084,-0.485C0.098,-0.487 0.113,-0.488 0.128,-0.488C0.143,-0.488 0.156,-0.487 0.168,-0.485C0.179,-0.483 0.189,-0.479 0.197,-0.473C0.205,-0.467 0.211,-0.459 0.216,-0.449C0.22,-0.438 0.222,-0.425 0.222,-0.408L0.222,-0.193C0.222,-0.166 0.229,-0.146 0.242,-0.135C0.255,-0.123 0.275,-0.117 0.3,-0.117C0.315,-0.117 0.328,-0.118 0.338,-0.121C0.347,-0.124 0.355,-0.126 0.36,-0.129L0.36,-0.479C0.367,-0.481 0.377,-0.483 0.392,-0.485C0.406,-0.487 0.421,-0.488 0.436,-0.488C0.451,-0.488 0.464,-0.487 0.476,-0.485C0.487,-0.483 0.497,-0.479 0.505,-0.473C0.513,-0.467 0.519,-0.459 0.524,-0.449C0.528,-0.438 0.53,-0.425 0.53,-0.408L0.53,-0.104C0.53,-0.071 0.516,-0.046 0.488,-0.029C0.465,-0.014 0.437,-0.003 0.405,0.005C0.372,0.012 0.337,0.016 0.299,0.016C0.263,0.016 0.23,0.012 0.2,0.004C0.169,-0.004 0.143,-0.016 0.121,-0.033C0.099,-0.05 0.082,-0.071 0.07,-0.098C0.058,-0.124 0.052,-0.156 0.052,-0.193C0.052,-0.193 0.053,-0.404 0.052,-0.452C0.052,-0.471 0.037,-0.48 0.037,-0.48Z" style="fill:rgb(146,145,146);fill-rule:nonzero;"/>
            </g>
        </g>
        <g transform="matrix(80,0,0,80,244.08,191.142)">
            <g>
                <path d="M0.222,-0.001C0.215,0.001 0.205,0.003 0.191,0.005C0.176,0.007 0.161,0.008 0.146,0.008C0.131,0.008 0.118,0.007 0.107,0.005C0.095,0.003 0.085,-0.001 0.077,-0.007C0.069,-0.013 0.063,-0.021 0.059,-0.032C0.054,-0.042 0.052,-0.055 0.052,-0.072L0.052,-0.372C0.052,-0.387 0.055,-0.401 0.061,-0.412C0.066,-0.423 0.074,-0.432 0.085,-0.441C0.096,-0.45 0.109,-0.458 0.125,-0.465C0.14,-0.472 0.157,-0.478 0.175,-0.483C0.193,-0.488 0.212,-0.493 0.231,-0.496C0.25,-0.499 0.27,-0.5 0.289,-0.5C0.321,-0.5 0.346,-0.494 0.365,-0.482C0.384,-0.469 0.393,-0.449 0.393,-0.421C0.393,-0.412 0.392,-0.403 0.389,-0.394C0.386,-0.385 0.383,-0.376 0.379,-0.369C0.365,-0.369 0.351,-0.368 0.336,-0.367C0.321,-0.366 0.307,-0.364 0.293,-0.361C0.279,-0.358 0.266,-0.356 0.254,-0.353C0.241,-0.349 0.231,-0.346 0.222,-0.342L0.222,-0.001Z" style="fill:rgb(146,145,146);fill-rule:nonzero;"/>
            </g>
        </g>
        <g transform="matrix(1,0,0,0.862485,-7.11361,24.8696)">
            <g id="path307608">
                <path d="M80.65,193.172C68.769,193.358 75.598,183.737 76.403,168.301C76.932,158.148 77.52,148.586 75.716,145.164C72.924,139.87 71.77,142.608 68.333,137.491C68.333,137.491 72.83,136.37 77.881,131.933C83.8,126.733 84.871,118.097 84.871,118.097C84.871,118.097 85.465,124.449 87.785,136.307C89.757,146.383 89.438,153.532 89.267,158.404C89.133,162.236 87.709,174.905 88.114,180.601C88.406,184.701 93.975,187.978 92.996,190.056C91.95,192.276 85.71,193.092 80.65,193.172Z" style="fill:rgb(146,145,146);fill-rule:nonzero;stroke:rgb(146,145,146);stroke-width:0.75px;"/>
            </g>
        </g>
        <g transform="matrix(0.778313,2.77556e-17,-1.66533e-16,0.916514,-138.845,-87.3075)">
            <g id="path307616">
                <path d="M248.118,225.151C254.776,223.136 259.251,223.438 261.275,219.39C263.299,215.341 267.036,210.592 270.929,213.862C274.821,217.132 266.802,220.713 268.671,227.019C270.539,233.326 262.676,240.41 259.328,241.889C255.981,243.369 254.112,244.848 248.429,239.632C242.746,234.415 239.352,227.803 248.118,225.151Z" style="fill:rgb(146,145,146);fill-rule:nonzero;stroke:rgb(146,145,146);stroke-width:0.75px;"/>
            </g>
        </g>
        <g transform="matrix(1.02562,5.55112e-17,-1.11022e-16,0.790528,-196.471,-58.6754)">
            <g id="path307618">
                <path d="M225.928,195.851C232.969,192.548 236.881,191.591 241.488,188.462C246.096,185.332 246.704,181.073 248.617,188.375C250.529,195.677 241.315,213.671 235.838,214.801C230.362,215.931 231.405,220.539 224.19,210.629C216.975,200.719 220.191,199.763 225.928,195.851Z" style="fill:rgb(146,145,146);fill-rule:nonzero;stroke:rgb(146,145,146);stroke-width:0.75px;"/>
            </g>
        </g>
        <g transform="matrix(1,1.66533e-16,-1.66533e-16,1,-189.46,-97.3487)">
            <g id="path307627">
                <path d="M209.719,163.251C218.665,163.951 261.043,157.486 235.247,170.009C209.452,182.533 209.766,190.166 207.783,179.828C205.589,168.39 206.922,163.033 209.719,163.251Z" style="fill:rgb(146,145,146);fill-rule:nonzero;stroke:rgb(146,145,146);stroke-width:0.75px;"/>
            </g>
        </g>
        <g transform="matrix(1,1.66533e-16,-1.66533e-16,1,-189.46,-97.3487)">
            <g id="path307629">
                <path d="M228.434,135.705C222.689,132.602 221.655,122.375 217.403,128.465C213.151,134.555 204.878,149.034 213.496,145.816C222.114,142.599 233.145,143.518 238.661,147.195C244.176,150.872 247.247,144.769 241.386,143.046C235.526,141.322 234.409,140.416 228.434,135.705Z" style="fill:rgb(146,145,146);fill-rule:nonzero;stroke:rgb(146,145,146);stroke-width:0.75px;"/>
            </g>
        </g>
        <g transform="matrix(1,1.66533e-16,-1.66533e-16,1,-189.46,-97.3487)">
            <g id="path307633">
                <path d="M248.198,119.158C252.41,124.323 253.369,126.742 254.288,130.074C255.207,133.406 255.322,133.406 256.816,134.785C258.31,136.164 255.761,141.841 252.199,134.028C248.636,126.214 247.394,126.512 241.993,124.214C236.592,121.916 224.783,117.11 238.36,109.175C246.97,104.144 245.085,108.284 245.629,112.64C246.142,116.752 246.279,116.805 248.198,119.158Z" style="fill:rgb(146,145,146);fill-rule:nonzero;stroke:rgb(146,145,146);stroke-width:0.75px;"/>
            </g>
        </g>
        <g transform="matrix(1,1.66533e-16,-1.66533e-16,1,-189.46,-97.3487)">
            <g id="path307639">
                <path d="M272.471,112.213C271.186,115.938 270.738,120.716 270.545,124.956C270.449,127.075 273.219,136.457 271.777,136.07C270.335,135.683 264.681,125.527 265.966,120.196C268.535,109.534 261.487,108.102 259.304,104.762C257.12,101.422 263.928,97.632 270.737,99.302C277.545,100.972 286.273,101.876 279.344,105.854C275.647,107.976 272.343,111.763 272.471,112.213Z" style="fill:rgb(146,145,146);fill-rule:nonzero;stroke:rgb(146,145,146);stroke-width:0.75px;"/>
            </g>
        </g>
        <g transform="matrix(1,1.66533e-16,-1.66533e-16,1,-189.46,-97.3487)">
            <g id="path307641">
                <path d="M288.184,124.386C287.126,125.497 287.585,128.255 286.008,132.851C284.479,137.307 286.019,146.501 284.855,145.604C283.822,144.809 282.397,142.788 281.761,139.661C279.818,130.118 285.249,118.735 289.427,113.976C290.833,112.375 293.626,107.825 297.103,110.926C300.581,114.028 301.619,114.109 296.1,117.564C294.627,118.486 291.227,121.192 290.567,121.884L288.184,124.386Z" style="fill:rgb(146,145,146);fill-rule:nonzero;stroke:rgb(146,145,146);stroke-width:0.75px;"/>
            </g>
        </g>
        <g transform="matrix(1,1.66533e-16,-1.66533e-16,1,-189.46,-97.3487)">
            <g id="path307643">
                <path d="M305.739,129.286C307.927,127.809 309.925,125.392 313.153,127.964C316.381,130.535 320.156,134.036 318.843,135.678C317.53,137.319 313.208,137.538 313.317,135.678C307.589,128.94 298.71,141.776 297.328,142.931C293.582,145.785 292.325,151.569 291.669,153.894C290.356,158.544 290.52,149.833 292.38,144.308C294.24,138.782 296.195,137.359 298.001,134.35C300.614,131.943 304.605,130.05 305.739,129.286Z" style="fill:rgb(146,145,146);fill-rule:nonzero;stroke:rgb(146,145,146);stroke-width:0.75px;"/>
            </g>
        </g>
        <g transform="matrix(1,1.66533e-16,-1.66533e-16,1,-189.46,-97.3487)">
            <g id="path307645">
                <path d="M314.214,150.069C319.705,151.771 324.544,150.637 324.204,148.48C323.863,146.323 323.592,145.589 320.004,146.197C316.416,146.805 313.254,144.129 311.672,145.893C310.091,147.657 307.415,149.542 305.591,148.691C304.679,148.265 299.37,153.832 298.349,155.334C296.668,157.806 294.934,159.622 292.657,161.408C289.414,163.952 301.502,156.177 302.694,154.636C305.075,151.56 307.656,152.079 308.295,151.684C309.572,150.893 312.711,149.603 314.214,150.069Z" style="fill:rgb(146,145,146);fill-rule:nonzero;stroke:rgb(146,145,146);stroke-width:0.75px;"/>
            </g>
        </g>
        <g transform="matrix(1,1.66533e-16,-1.66533e-16,1,-189.46,-97.3487)">
            <g id="path307647">
                <path d="M309.108,163.503C307.256,162.842 294.231,167.529 292.859,167.749C291.378,167.986 297.908,162.57 306.857,159.715C315.806,156.86 324.975,156.146 324.042,160.429C323.108,164.711 325.963,165.809 318.167,164.546C312.677,161.261 311.826,164.432 309.108,163.503Z" style="fill:rgb(146,145,146);fill-rule:nonzero;stroke:rgb(146,145,146);stroke-width:0.75px;"/>
            </g>
        </g>
        <g transform="matrix(1,1.66533e-16,-1.66533e-16,1,-189.46,-97.3487)">
            <g id="path307649">
                <path d="M289.845,183.893C295.176,184.682 296.276,184.475 303.16,181.251C310.044,178.027 326.949,169.487 315.098,183.255C303.247,197.024 300.894,197.721 295.666,200.509C290.438,203.298 280.035,207.732 284.164,193.712C286.735,184.981 289.845,183.893 289.845,183.893Z" style="fill:rgb(146,145,146);fill-rule:nonzero;stroke:rgb(146,145,146);stroke-width:0.75px;"/>
            </g>
        </g>
    </g>
</svg>
